<svg width="414" height="548" viewBox="0 0 414 548" fill="none" xmlns="http://www.w3.org/2000/svg">
<mask id="mask0_1173_357" style="mask-type:alpha" maskUnits="userSpaceOnUse" x="0" y="0" width="414" height="548">
<rect width="414" height="548" fill="#A259FF"/>
</mask>
<g mask="url(#mask0_1173_357)">
<path d="M56.7592 532.463C-33.4477 480.915 247.682 312.65 230.557 202.3C214.162 96.6596 83.8197 28.2581 149.399 -75.5304C251.272 -236.757 660.492 -3.31563 711.518 149.13C768.824 320.34 207.419 618.558 56.7592 532.463Z" fill="#7E19FF" fill-opacity="0.6"/>
<path d="M671.881 334.614C565.918 352.311 517.057 267.7 427.409 208.523C341.587 151.872 244.32 142.417 223.682 41.7045C191.623 -114.745 454.697 -185.634 599.879 -118.977C762.93 -44.1152 848.856 305.056 671.881 334.614Z" fill="#6F12E7" fill-opacity="0.8"/>
<path fill-rule="evenodd" clip-rule="evenodd" d="M315.91 -83.4624C293.573 -55.9638 283.19 -22.3494 291.172 16.6041C301.453 66.7717 330.801 94.2126 368.354 116.206C384.028 125.385 401.116 133.606 418.845 142.136C422.37 143.832 425.921 145.54 429.491 147.271C451.004 157.699 473.2 168.924 494.684 183.106C517.123 197.918 537.005 214.318 555.85 230.298C558.49 232.536 561.11 234.766 563.713 236.982C579.699 250.592 595.07 263.679 610.818 274.99C647.419 301.281 685.992 317.94 738.798 309.121C782.843 301.764 810.523 274.54 824.753 236.622C838.993 198.678 839.759 150.023 829.899 99.9039C820.041 49.792 799.568 -1.7369 771.383 -45.4066C743.197 -89.0803 707.319 -124.859 666.67 -143.523C594.221 -176.786 492.296 -175.742 412.486 -146.831C372.586 -132.378 338.259 -110.976 315.91 -83.4624ZM412.145 -147.771C492.153 -176.753 594.355 -177.825 667.087 -144.432C707.964 -125.664 743.972 -89.7233 772.224 -45.9489C800.478 -2.17038 820.998 49.4775 830.88 99.7108C840.762 149.937 840.017 198.796 825.689 236.974C811.351 275.178 783.406 302.684 738.963 310.107C685.806 318.985 646.967 302.187 610.235 275.803C594.45 264.465 579.043 251.348 563.059 237.739C560.457 235.524 557.84 233.296 555.204 231.06C536.363 215.085 516.519 198.717 494.133 183.941C472.707 169.797 450.561 158.596 429.055 148.171C425.491 146.443 421.945 144.737 418.423 143.043C400.693 134.513 383.561 126.27 367.849 117.068C330.155 94.993 300.55 67.3501 290.193 16.8049C282.145 -22.4662 292.624 -56.3814 315.134 -84.0929C337.632 -111.79 372.136 -133.278 412.145 -147.771Z" fill="#ACFF86" fill-opacity="0.6"/>
</g>
</svg>
